#!OML:ASF X:\für Bonn\!DataBase\2005_08_11_Bastian_Final\c3d\Bastian.ASF
:FULLY-SPECIFIED
:DEGREES
309
root 20.9689 17.235 -5.03667 541.277 -123.896 -175.626
lowerback 51.9969 5.42615 3.69337
upperback 18.0682 6.04123 1.71593
thorax -0.4348 2.2926 -2.02963
lowerneck -6.96368 -12.191 2.34267
upperneck -26.9643 -14.3487 18.3919
head -5.83497 -9.25758 5.90837
rclavicle -9.70069e-014 9.22361e-014
rhumerus 31.3874 35.6627 -56.4266
rradius 29.8476
rwrist -14.367
rhand -35.2773 5.5613
rfingers 7.12502
rthumb -8.41238 -24.2512
lclavicle -9.70069e-014 9.22361e-014
lhumerus -8.36829 -23.3622 88.7846
lradius 29.0659
lwrist 28.0099
lhand -12.4709 -12.481
lfingers 7.12502
lthumb 13.6032 17.0546
rfemur -26.8821 -19.6299 21.9273
rtibia 47.2363
rfoot -19.0889 -8.97757
rtoes 5.89614
lfemur -26.6136 -7.90551 -22.2072
ltibia 34.6109
lfoot -5.20793 -11.3344
ltoes -19.135
310
root 20.9311 17.2467 -4.99253 541.136 -123.488 -175.957
lowerback 51.3425 5.47121 3.52111
upperback 18.0893 6.00675 1.65106
thorax -0.351757 2.27559 -2.00442
lowerneck -7.10001 -12.1665 2.3663
upperneck -26.766 -14.3671 18.2985
head -5.75735 -9.24083 5.84824
rclavicle -6.36111e-015 4.92986e-014
rhumerus 30.4017 36.1549 -57.1601
rradius 29.9928
rwrist -14.2117
rhand -35.1772 5.75005
rfingers 7.12502
rthumb -8.31577 -24.0663
lclavicle -6.36111e-015 4.92986e-014
lhumerus -8.26558 -23.1748 88.623
lradius 28.7657
lwrist 27.8914
lhand -12.5594 -12.269
lfingers 7.12502
lthumb 13.5179 17.2722
rfemur -25.9498 -19.1524 21.8615
rtibia 46.825
rfoot -19.0864 -9.14607
rtoes 5.02111
lfemur -25.8155 -7.7071 -22.103
ltibia 34.4782
lfoot -5.46852 -11.1644
ltoes -18.7042
311
root 20.8912 17.258 -4.94831 540.976 -123.09 -176.211
lowerback 50.6537 5.51843 3.26431
upperback 18.083 5.94613 1.59071
thorax -0.299553 2.24056 -1.92651
lowerneck -7.21281 -12.1176 2.35012
upperneck -26.5225 -14.3533 18.1971
head -5.66816 -9.20081 5.78961
rclavicle -3.33958e-014 -1.66979e-014
rhumerus 29.4772 36.7815 -57.7989
rradius 30.1391
rwrist -14.1375
rhand -35.1509 5.83954
rfingers 7.12502
rthumb -8.29038 -23.9778
lclavicle -3.33958e-014 -1.66979e-014
lhumerus -8.22364 -22.9144 88.4708
lradius 28.4752
lwrist 27.8276
lhand -12.6353 -12.0303
lfingers 7.12502
lthumb 13.4447 17.5158
rfemur -25.0915 -18.6829 21.7669
rtibia 46.4526
rfoot -19.0915 -9.32961
rtoes 4.32466
lfemur -25.0664 -7.41534 -22.0561
ltibia 34.3596
lfoot -5.70823 -11.0884
ltoes -18.362
312
root 20.8515 17.2671 -4.90377 540.867 -122.686 -176.51
lowerback 49.9723 5.54644 3.05703
upperback 18.0745 5.88813 1.52017
thorax -0.239856 2.21078 -1.88117
lowerneck -7.32088 -12.0754 2.34896
upperneck -26.3144 -14.3417 18.1176
head -5.59076 -9.16828 5.73947
rclavicle -2.8625e-014 -1.35969e-013
rhumerus 28.5724 37.4287 -58.3497
rradius 30.3305
rwrist -14.1851
rhand -35.127 5.94544
rfingers 7.12502
rthumb -8.26737 -23.8728
lclavicle -2.8625e-014 -1.35969e-013
lhumerus -8.20835 -22.7093 88.3108
lradius 28.2463
lwrist 27.7606
lhand -12.7197 -11.8519
lfingers 7.12502
lthumb 13.3634 17.6995
rfemur -24.261 -18.1849 21.7119
rtibia 46.1099
rfoot -19.0888 -9.53379
rtoes 3.58243
lfemur -24.3494 -7.13817 -21.9772
ltibia 34.2655
lfoot -5.9628 -10.986
ltoes -17.978
313
root 20.8109 17.276 -4.85912 540.748 -122.274 -176.765
lowerback 49.2638 5.57996 2.81122
upperback 18.0575 5.82489 1.44422
thorax -0.183798 2.17698 -1.82066
lowerneck -7.47395 -12.029 2.37631
upperneck -26.0353 -14.3417 17.9879
head -5.48987 -9.13371 5.66115
rclavicle -1.59028e-014 -1.43125e-014
rhumerus 27.6789 38.0977 -58.895
rradius 30.5156
rwrist -14.2504
rhand -35.1814 6.02188
rfingers 7.12502
rthumb -8.31982 -23.7943
lclavicle -1.59028e-014 -1.43125e-014
lhumerus -8.21409 -22.4805 88.1499
lradius 28.0103
lwrist 27.7382
lhand -12.779 -11.6982
lfingers 7.12502
lthumb 13.3062 17.857
rfemur -23.5031 -17.6984 21.6494
rtibia 45.807
rfoot -19.0643 -9.75835
rtoes 2.70954
lfemur -23.6586 -6.81478 -21.9265
ltibia 34.1721
lfoot -6.25081 -10.9377
ltoes -17.6542
